<?xml version="1.0" encoding="iso-8859-1"?>
<!-- Generator: Adobe Illustrator 19.0.0, SVG Export Plug-In . SVG Version: 6.00 Build 0)  -->
<svg xmlns="http://www.w3.org/2000/svg" xmlns:xlink="http://www.w3.org/1999/xlink" version="1.1" id="Capa_1" x="0px" y="0px" viewBox="0 0 512.003 512.003" style="enable-background:new 0 0 512.003 512.003;" xml:space="preserve" width="512px" height="512px">
<g>
	<g>
		<path d="M478.678,5.139c-1.306-3.931-5.55-6.059-9.481-4.755l-199.98,66.394c-1.5-1.641-3.29-3.021-5.337-4.047    c-4.397-2.205-9.39-2.564-14.058-1.017L37.463,132.215h-1.835c-13.007,0-23.588,10.581-23.588,23.588v131.189    c0,13.007,10.581,23.588,23.588,23.588h152.895l-7.628,20.377H122.86c-3.128,0-5.928,1.941-7.024,4.871L55.505,497.002H24.621    c-1.897,0-2.96-1.123-3.424-1.793c-0.465-0.669-1.145-2.058-0.479-3.836l59.755-159.629c1.452-3.879-0.516-8.201-4.396-9.653    c-3.877-1.451-8.2,0.515-9.653,4.396L6.67,486.115c-2.202,5.884-1.379,12.479,2.201,17.643c3.58,5.162,9.468,8.244,15.75,8.244    h91.23c7.951,0,15.165-5.003,17.95-12.448L204.54,310.58h2.357l11.797,23.947c-9.596,8.643-12.738,22.938-6.755,35.082    c1.305,2.649,3.966,4.188,6.733,4.188c1.112,0,2.242-0.249,3.309-0.774c3.716-1.83,5.244-6.326,3.413-10.042    c-3.558-7.224-0.576-15.995,6.646-19.554c7.226-3.555,15.997-0.575,19.555,6.646c1.83,3.716,6.326,5.246,10.042,3.413    c3.716-1.831,5.244-6.327,3.413-10.042c-6.154-12.491-20-18.719-33.027-15.801l-8.406-17.063h139.434    c13.007,0,23.588-10.581,23.588-23.588v-131.19c0-13.007-10.581-23.588-23.588-23.588h-208.66l107.036-35.535    c6.965-2.311,11.811-8.476,12.519-15.666L473.923,14.62C477.854,13.314,479.983,9.07,478.678,5.139z M171.154,356.981h-17.632    c-4.143,0-7.5,3.357-7.5,7.5s3.357,7.5,7.5,7.5h12.017l-4.942,13.202h-18.393c-4.143,0-7.5,3.357-7.5,7.5s3.357,7.5,7.5,7.5    h12.778l-4.942,13.201h-19.154c-4.143,0-7.5,3.357-7.5,7.5s3.357,7.5,7.5,7.5h13.539l-4.942,13.202h-19.916    c-4.143,0-7.5,3.357-7.5,7.5s3.357,7.5,7.5,7.5h14.301l-4.942,13.202H108.25c-4.143,0-7.5,3.357-7.5,7.5s3.357,7.5,7.5,7.5h15.061    l-3.559,9.508c-0.605,1.619-2.172,2.706-3.901,2.706H71.522l56.539-151.045h47.22L171.154,356.981z M35.629,295.58    c-4.735,0-8.588-3.853-8.588-8.588v-79.956h15.343c4.143,0,7.5-3.357,7.5-7.5s-3.357-7.5-7.5-7.5H27.041v-8.935h28.702    c4.143,0,7.5-3.357,7.5-7.5s-3.357-7.5-7.5-7.5H27.041v-12.299c0-4.735,3.853-8.588,8.588-8.588h73.59    c-4.65,3.11-8.992,6.646-12.971,10.55c-0.222,0.177-0.439,0.364-0.645,0.57c-0.206,0.206-0.394,0.423-0.571,0.646    c-15.793,16.098-25.55,38.138-25.55,62.417c0,24.281,9.758,46.322,25.552,62.42c0.176,0.221,0.363,0.437,0.568,0.642    c0.205,0.204,0.42,0.391,0.641,0.567c3.981,3.906,8.323,7.443,12.975,10.554H35.629z M151.165,177.19    c-6.784,1.147-13.051,3.822-18.441,7.659l-20.914-20.914c10.961-8.955,24.517-14.846,39.354-16.343L151.165,177.19L151.165,177.19    z M122.117,195.457c-3.837,5.39-6.512,11.657-7.659,18.441H84.86c1.497-14.838,7.388-28.394,16.343-39.355L122.117,195.457z     M122.116,247.337l-20.914,20.914c-8.954-10.961-14.845-24.517-16.342-39.354h29.597    C115.604,235.68,118.279,241.947,122.116,247.337z M151.165,295.201c-14.837-1.496-28.394-7.388-39.355-16.343l20.914-20.914    c5.39,3.837,11.657,6.512,18.441,7.659V295.201z M166.166,295.202v-29.599h-0.001c6.783-1.147,13.05-3.822,18.44-7.659    l20.915,20.915C194.559,287.814,181.003,293.705,166.166,295.202z M195.212,247.337c3.837-5.39,6.512-11.656,7.659-18.44h29.598    c-1.496,14.837-7.388,28.393-16.342,39.355L195.212,247.337z M195.212,195.456l20.914-20.914    c8.955,10.962,14.847,24.518,16.343,39.355h-29.598C201.724,207.113,199.049,200.846,195.212,195.456z M363.051,147.214    L363.051,147.214c4.735,0.001,8.588,3.854,8.588,8.589v131.189c0,4.735-3.853,8.588-8.588,8.588h-154.94    c4.653-3.112,8.997-6.65,12.978-10.557c0.22-0.175,0.433-0.361,0.637-0.564c0.203-0.204,0.39-0.418,0.565-0.638    c15.797-16.098,25.556-38.141,25.556-62.424c0-24.281-9.758-46.323-25.553-62.421c-0.176-0.221-0.363-0.437-0.568-0.642    c-0.205-0.204-0.42-0.391-0.641-0.567c-3.98-3.906-8.323-7.443-12.974-10.553H363.051z M166.165,147.593    c14.837,1.496,28.393,7.388,39.354,16.342l-20.914,20.914c-5.39-3.837-11.656-6.512-18.44-7.659V147.593z M158.665,191.55    c16.457,0,29.846,13.39,29.846,29.847c0,16.457-13.389,29.846-29.846,29.846c-16.458,0-29.847-13.389-29.847-29.846    C128.818,204.94,142.207,191.55,158.665,191.55z M256.701,82.442l-149.919,49.771H85.071L254.55,75.949    c1.165-0.388,2.133-0.047,2.604,0.189c0.473,0.237,1.324,0.81,1.715,1.985c0.116,0.348,0.175,0.707,0.175,1.068    C259.044,80.422,258.32,81.905,256.701,82.442z" fill="#D80027"/>
	</g>
</g>
<g>
	<g>
		<path d="M327.689,266.066h-18.926c-4.143,0-7.5,3.357-7.5,7.5s3.357,7.5,7.5,7.5h18.926c4.143,0,7.5-3.357,7.5-7.5    S331.832,266.066,327.689,266.066z" fill="#D80027"/>
	</g>
</g>
<g>
	<g>
		<path d="M318.233,162.64c-11.806,0-21.411,9.605-21.411,21.411c0,11.806,9.605,21.412,21.411,21.412    c11.807,0,21.412-9.605,21.412-21.412C339.645,172.245,330.04,162.64,318.233,162.64z M318.233,190.462    c-3.535,0-6.411-2.876-6.411-6.412c0-3.535,2.876-6.411,6.411-6.411c3.536,0,6.412,2.876,6.412,6.411    C324.645,187.586,321.769,190.462,318.233,190.462z" fill="#D80027"/>
	</g>
</g>
<g>
	<g>
		<path d="M318.23,213.899c-11.807,0-21.412,9.605-21.412,21.412c0,11.806,9.605,21.411,21.412,21.411    c11.806,0,21.411-9.605,21.411-21.411C339.641,223.504,330.036,213.899,318.23,213.899z M318.23,241.722    c-3.536,0-6.412-2.876-6.412-6.411c0-3.536,2.876-6.412,6.412-6.412c3.535,0,6.411,2.876,6.411,6.412    C324.641,238.846,321.765,241.722,318.23,241.722z" fill="#D80027"/>
	</g>
</g>
<g>
	<g>
		<path d="M438.405,466.534v-26.412c0-4.143-3.357-7.5-7.5-7.5h-3.872v-17.001l12.403-4.208c3.923-1.331,6.024-5.59,4.693-9.512    c-1.33-3.923-5.592-6.021-9.512-4.693l-31.17,10.575c-3.923,1.331-6.024,5.59-4.693,9.512c1.06,3.124,3.977,5.093,7.102,5.093    c0.799,0,1.612-0.129,2.41-0.399l3.767-1.278v11.912h-16.32l-1.094-4.853l-5.202-23.087c3.128-8.997,19.169-49.874,56.311-63.464    c3.89-1.423,5.89-5.729,4.466-9.62c-1.422-3.89-5.728-5.891-9.62-4.466c-40.305,14.746-58.746,55.007-64.27,69.678H271.155    c-2.064,0-4.037,0.851-5.454,2.352l-31.879,33.772l-46.152,4.544c-2.733,0.27-5.102,2.012-6.172,4.541l-10.479,24.763    c-6.235,1.472-10.895,7.071-10.895,13.75v8.35c0,7.803,6.343,14.15,14.14,14.15h44.934c5.362,5.526,12.859,8.97,21.149,8.97    c8.29,0,15.786-3.444,21.149-8.97h96.494c5.362,5.526,12.859,8.97,21.15,8.97c8.29,0,15.786-3.444,21.149-8.97h36.216    c7.803,0,14.15-6.348,14.15-14.15v-8.35C450.655,473.381,445.31,467.467,438.405,466.534z M274.39,411.811h39.361v20.808H254.75    L274.39,411.811z M175.125,488.032v-6.641h1.03h34.735c-0.014,0.374-0.029,0.747-0.029,1.124c0,1.886,0.185,3.728,0.525,5.517    H175.125z M240.347,497.001c-7.987,0-14.486-6.498-14.486-14.486c0-7.987,6.499-14.486,14.486-14.486s14.486,6.499,14.486,14.486    S248.334,497.001,240.347,497.001z M269.309,488.032c0.34-1.788,0.525-3.631,0.525-5.517c0-0.377-0.014-0.75-0.029-1.124h79.875    c-0.014,0.374-0.029,0.747-0.029,1.124c0,1.886,0.185,3.728,0.525,5.517H269.309z M379.139,497.001    c-7.988,0.001-14.487-6.498-14.487-14.486c0-7.987,6.499-14.486,14.487-14.486c7.987,0,14.486,6.499,14.486,14.486    S387.126,497.001,379.139,497.001z M379.138,453.03c-10.311,0-19.397,5.324-24.67,13.362h-89.454    c-5.272-8.039-14.358-13.362-24.669-13.362c-10.311,0-19.396,5.324-24.669,13.362H187.47l6.105-14.423l44.178-4.351h122.961    c4.143,0,7.5-3.357,7.5-7.5s-3.357-7.5-7.5-7.5H328.75V411.81h46.895l5.385,23.89l1.368,6.069    c0.097,0.432,0.231,0.848,0.397,1.246c0.002,0.006,0.005,0.011,0.008,0.016c0.164,0.389,0.358,0.761,0.581,1.112    c0.007,0.011,0.015,0.021,0.022,0.032c0.221,0.344,0.469,0.669,0.741,0.97c0.006,0.007,0.013,0.013,0.019,0.02    c1.385,1.523,3.376,2.457,5.548,2.457h33.69v18.77h-19.597C398.535,458.353,389.449,453.03,379.138,453.03z M408.1,488.032    c0.34-1.788,0.525-3.631,0.525-5.517c0-0.377-0.014-0.75-0.029-1.124h22.308h4.75v6.641H408.1z" fill="#D80027"/>
	</g>
</g>
<g>
	<g>
		<path d="M437.027,266.449c-4.143,0-7.5,3.357-7.5,7.5v23.788c0,4.143,3.357,7.5,7.5,7.5s7.5-3.357,7.5-7.5v-23.788    C444.527,269.806,441.17,266.449,437.027,266.449z" fill="#D80027"/>
	</g>
</g>
<g>
	<g>
		<path d="M499.048,328.469H475.26c-4.143,0-7.5,3.357-7.5,7.5s3.357,7.5,7.5,7.5h23.788c4.143,0,7.5-3.357,7.5-7.5    S503.19,328.469,499.048,328.469z" fill="#D80027"/>
	</g>
</g>
<g>
	<g>
		<path d="M485.234,287.761c-2.928-2.928-7.677-2.929-10.606,0.001l-16.991,16.992c-2.929,2.929-2.929,7.678,0.001,10.606    c1.464,1.464,3.384,2.196,5.303,2.196s3.839-0.732,5.304-2.197l16.99-16.992C488.164,295.438,488.164,290.689,485.234,287.761z" fill="#D80027"/>
	</g>
</g>
<g>
</g>
<g>
</g>
<g>
</g>
<g>
</g>
<g>
</g>
<g>
</g>
<g>
</g>
<g>
</g>
<g>
</g>
<g>
</g>
<g>
</g>
<g>
</g>
<g>
</g>
<g>
</g>
<g>
</g>
</svg>
